<svg viewBox="0 0 3868 1196" fill="none" xmlns="http://www.w3.org/2000/svg">
<mask id="mask0_3210_3" style="mask-type:luminance" maskUnits="userSpaceOnUse" x="91" y="3" width="1091" height="1145">
<path d="M699.87 1110.42C666.909 1116.93 632.829 1120.35 597.966 1120.35C563.074 1120.35 528.994 1116.93 496.061 1110.42C529.022 1116.93 563.074 1120.35 597.966 1120.35C632.829 1120.35 666.909 1116.93 699.87 1110.42ZM370.262 1147.74L398.019 1080.7C398.025 1080.7 398.034 1080.71 398.044 1080.71L370.262 1147.74ZM724.856 1104.82C818.114 1081.54 901.439 1033.22 967.305 967.38C901.467 1033.22 818.114 1081.54 724.856 1104.82ZM607.382 1084C737.864 1081.51 855.738 1027.6 941.647 941.723C855.766 1027.6 737.864 1081.51 607.382 1084ZM243.428 1075.75L286.658 1017.49C191.244 946.534 120.847 843.792 91.1872 724.931C120.847 843.792 191.244 946.534 286.686 1017.49L243.428 1075.75ZM1001.68 929.479L1001.66 929.467C1075.78 839.315 1120.27 723.868 1120.27 598.041C1120.27 723.862 1075.79 839.299 1001.68 929.479ZM436.168 881.618C392.183 856.473 354.609 821.392 326.501 779.409L386.827 739.117L326.529 779.409C354.615 821.392 392.183 856.473 436.168 881.618ZM1014.87 847.989C1018.96 841.189 1022.87 834.278 1026.65 827.283C1022.9 834.278 1018.96 841.189 1014.87 847.989ZM158.481 805.85C155.067 798.687 151.877 791.413 148.827 784.082C151.877 791.413 155.095 798.687 158.481 805.85ZM256.326 720.147C242.7 682.01 235.257 640.879 235.257 598.041C235.257 640.879 242.7 681.982 256.326 720.147ZM291.337 710.245C278.74 675.876 271.768 638.799 271.526 600.115C271.768 638.793 278.759 675.863 291.337 710.245ZM111.921 598.041C111.921 353.774 292.086 151.616 526.784 117.173C292.114 151.616 111.921 353.774 111.921 598.041ZM1110.34 496.137C1110.34 496.134 1110.34 496.134 1110.34 496.131L1181.49 481.979L1110.34 496.137ZM409.854 427.502C412.652 424.424 415.506 421.43 418.416 418.492C415.506 421.43 412.652 424.452 409.854 427.502ZM887.517 379.534C848.811 328.361 796.874 287.765 736.803 262.838C796.902 287.765 848.815 328.361 887.517 379.534ZM1070.24 374.731L1135.83 343.701C1117.56 305.125 1095.26 268.829 1069.48 235.358C1095.27 268.829 1117.57 305.119 1135.86 343.701L1070.24 374.731ZM597.966 271.596C665.09 271.596 727.458 291.853 779.333 326.577L779.321 326.595C727.446 291.85 665.087 271.596 597.966 271.596ZM138.195 220.56C132.039 228.058 126.051 235.725 120.259 243.503C126.051 235.697 132.039 228.058 138.195 220.56ZM266.679 194.202L220.679 138.13C213.182 144.286 205.822 150.637 198.632 157.156C205.822 150.637 213.182 144.286 220.679 138.102L266.679 194.202ZM329.439 149.966L329.48 149.922C399.977 107.616 481.263 81.4451 568.244 76.5641C481.235 81.4481 399.928 107.631 329.439 149.966ZM746.674 97.2041C731.363 92.6807 715.741 88.8442 699.87 85.6949L714.083 14.5411L699.898 85.6949C715.741 88.8442 731.363 92.6807 746.674 97.2041ZM292.282 87.6536C381.594 34.0154 486.184 3.18115 597.966 3.18115C486.184 3.18115 381.622 34.0154 292.282 87.6536Z" fill="white"/>
</mask>
<g mask="url(#mask0_3210_3)">
<path d="M699.87 1110.42C666.909 1116.93 632.829 1120.35 597.966 1120.35C563.074 1120.35 528.994 1116.93 496.061 1110.42C529.022 1116.93 563.074 1120.35 597.966 1120.35C632.829 1120.35 666.909 1116.93 699.87 1110.42ZM370.262 1147.74L398.019 1080.7C398.025 1080.7 398.034 1080.71 398.044 1080.71L370.262 1147.74ZM724.856 1104.82C818.114 1081.54 901.439 1033.22 967.305 967.38C901.467 1033.22 818.114 1081.54 724.856 1104.82ZM607.382 1084C737.864 1081.51 855.738 1027.6 941.647 941.723C855.766 1027.6 737.864 1081.51 607.382 1084ZM243.428 1075.75L286.658 1017.49C191.244 946.534 120.847 843.792 91.1872 724.931C120.847 843.792 191.244 946.534 286.686 1017.49L243.428 1075.75ZM1001.68 929.479L1001.66 929.467C1075.78 839.315 1120.27 723.868 1120.27 598.041C1120.27 723.862 1075.79 839.299 1001.68 929.479ZM436.168 881.618C392.183 856.473 354.609 821.392 326.501 779.409L386.827 739.117L326.529 779.409C354.615 821.392 392.183 856.473 436.168 881.618ZM1014.87 847.989C1018.96 841.189 1022.87 834.278 1026.65 827.283C1022.9 834.278 1018.96 841.189 1014.87 847.989ZM158.481 805.85C155.067 798.687 151.877 791.413 148.827 784.082C151.877 791.413 155.095 798.687 158.481 805.85ZM256.326 720.147C242.7 682.01 235.257 640.879 235.257 598.041C235.257 640.879 242.7 681.982 256.326 720.147ZM291.337 710.245C278.74 675.876 271.768 638.799 271.526 600.115C271.768 638.793 278.759 675.863 291.337 710.245ZM111.921 598.041C111.921 353.774 292.086 151.616 526.784 117.173C292.114 151.616 111.921 353.774 111.921 598.041ZM1110.34 496.137C1110.34 496.134 1110.34 496.134 1110.34 496.131L1181.49 481.979L1110.34 496.137ZM409.854 427.502C412.652 424.424 415.506 421.43 418.416 418.492C415.506 421.43 412.652 424.452 409.854 427.502ZM887.517 379.534C848.811 328.361 796.874 287.765 736.803 262.838C796.902 287.765 848.815 328.361 887.517 379.534ZM1070.24 374.731L1135.83 343.701C1117.56 305.125 1095.26 268.829 1069.48 235.358C1095.27 268.829 1117.57 305.119 1135.86 343.701L1070.24 374.731ZM597.966 271.596C665.09 271.596 727.458 291.853 779.333 326.577L779.321 326.595C727.446 291.85 665.087 271.596 597.966 271.596ZM138.195 220.56C132.039 228.058 126.051 235.725 120.259 243.503C126.051 235.697 132.039 228.058 138.195 220.56ZM266.679 194.202L220.679 138.13C213.182 144.286 205.822 150.637 198.632 157.156C205.822 150.637 213.182 144.286 220.679 138.102L266.679 194.202ZM329.439 149.966L329.48 149.922C399.977 107.616 481.263 81.4451 568.244 76.5641C481.235 81.4481 399.928 107.631 329.439 149.966ZM746.674 97.2041C731.363 92.6807 715.741 88.8442 699.87 85.6949L714.083 14.5411L699.898 85.6949C715.741 88.8442 731.363 92.6807 746.674 97.2041ZM292.282 87.6536C381.594 34.0154 486.184 3.18115 597.966 3.18115C486.184 3.18115 381.622 34.0154 292.282 87.6536Z" fill="url(#paint0_radial_3210_3)"/>
</g>
<mask id="mask1_3210_3" style="mask-type:luminance" maskUnits="userSpaceOnUse" x="0" y="0" width="1196" height="1196">
<path d="M0 1196V0.000244141H1196V1196H0Z" fill="white"/>
</mask>
<g mask="url(#mask1_3210_3)">
<path d="M446.732 394.092L403.531 335.809L446.732 394.064C488.982 362.698 541.305 344.148 597.965 344.148C650.177 344.148 698.694 359.9 739.042 386.901L779.321 326.595C779.324 326.598 779.33 326.601 779.333 326.604L739.042 386.901C698.694 359.9 650.177 344.148 597.965 344.148C541.305 344.148 488.982 362.698 446.732 394.092Z" fill="#A7A5A6"/>
</g>
<mask id="mask2_3210_3" style="mask-type:luminance" maskUnits="userSpaceOnUse" x="403" y="271" width="377" height="124">
<path d="M446.732 394.065L403.531 335.81C457.84 295.463 525.105 271.595 597.965 271.595C665.087 271.595 727.446 291.85 779.321 326.595L739.042 386.902C698.694 359.901 650.177 344.148 597.965 344.148C541.305 344.148 488.982 362.699 446.732 394.065Z" fill="white"/>
</mask>
<g mask="url(#mask2_3210_3)">
<path d="M446.732 394.065L403.531 335.81C457.84 295.463 525.105 271.595 597.965 271.595C665.087 271.595 727.446 291.85 779.321 326.595L739.042 386.902C698.694 359.901 650.177 344.148 597.965 344.148C541.305 344.148 488.982 362.699 446.732 394.065Z" fill="url(#paint1_radial_3210_3)"/>
</g>
<mask id="mask3_3210_3" style="mask-type:luminance" maskUnits="userSpaceOnUse" x="749" y="335" width="69" height="75">
<path d="M768.478 409.929C762.35 404.361 755.943 399.101 749.283 394.148L792.513 335.893C801.075 342.245 809.329 349.016 817.219 356.179L768.478 409.929Z" fill="white"/>
</mask>
<g mask="url(#mask3_3210_3)">
<path d="M768.478 409.929C762.35 404.361 755.943 399.101 749.283 394.148L792.513 335.893C801.075 342.245 809.329 349.016 817.219 356.179L768.478 409.929Z" fill="url(#paint2_radial_3210_3)"/>
</g>
<mask id="mask4_3210_3" style="mask-type:luminance" maskUnits="userSpaceOnUse" x="786" y="378" width="139" height="221">
<path d="M924.411 598.041H851.858C851.858 532.427 826.983 472.662 786.132 427.585L839.91 378.9C892.429 436.819 924.411 513.681 924.411 598.041Z" fill="white"/>
</mask>
<g mask="url(#mask4_3210_3)">
<path d="M924.411 598.041H851.858C851.858 532.427 826.983 472.662 786.132 427.585L839.91 378.9C892.429 436.819 924.411 513.681 924.411 598.041Z" fill="url(#paint3_radial_3210_3)"/>
</g>
<mask id="mask5_3210_3" style="mask-type:luminance" maskUnits="userSpaceOnUse" x="821" y="610" width="104" height="143">
<path d="M885.882 752.017L821.891 717.797C839.155 685.591 849.676 649.217 851.55 610.576L924.019 614.158C921.585 663.823 908.07 710.578 885.882 752.017Z" fill="white"/>
</mask>
<g mask="url(#mask5_3210_3)">
<path d="M885.882 752.017L821.891 717.797C839.155 685.591 849.676 649.217 851.55 610.576L924.019 614.158C921.585 663.823 908.07 710.578 885.882 752.017Z" fill="url(#paint4_radial_3210_3)"/>
</g>
<mask id="mask6_3210_3" style="mask-type:luminance" maskUnits="userSpaceOnUse" x="309" y="717" width="72" height="49">
<path d="M317.883 765.782C315.141 761.221 312.511 756.577 309.993 751.876L373.984 717.684C375.942 721.35 377.985 724.959 380.111 728.513L317.883 765.782Z" fill="white"/>
</mask>
<g mask="url(#mask6_3210_3)">
<path d="M317.883 765.782C315.141 761.221 312.511 756.577 309.993 751.876L373.984 717.684C375.942 721.35 377.985 724.959 380.111 728.513L317.883 765.782Z" fill="url(#paint5_radial_3210_3)"/>
</g>
<mask id="mask7_3210_3" style="mask-type:luminance" maskUnits="userSpaceOnUse" x="326" y="739" width="164" height="155">
<path d="M458.26 893.148C450.734 889.579 443.365 885.731 436.168 881.618C392.183 856.473 354.615 821.392 326.529 779.409L386.827 739.118C412.261 777.087 447.684 807.809 489.318 827.563L458.26 893.148Z" fill="white"/>
</mask>
<g mask="url(#mask7_3210_3)">
<path d="M458.26 893.148C450.734 889.579 443.365 885.731 436.168 881.618C392.183 856.473 354.615 821.392 326.529 779.409L386.827 739.118C412.261 777.087 447.684 807.809 489.318 827.563L458.26 893.148Z" fill="url(#paint6_radial_3210_3)"/>
</g>
<mask id="mask8_3210_3" style="mask-type:luminance" maskUnits="userSpaceOnUse" x="610" y="749" width="251" height="176">
<path d="M613.942 924.093L610.388 851.625C688.817 847.848 757.9 808.508 801.857 749.357L860.112 792.587C803.592 868.637 714.782 919.225 613.942 924.093Z" fill="white"/>
</mask>
<g mask="url(#mask8_3210_3)">
<path d="M613.942 924.093L610.388 851.625C688.817 847.848 757.9 808.508 801.857 749.357L860.112 792.587C803.592 868.637 714.782 919.225 613.942 924.093Z" fill="url(#paint7_radial_3210_3)"/>
</g>
<mask id="mask9_3210_3" style="mask-type:luminance" maskUnits="userSpaceOnUse" x="356" y="367" width="63" height="61">
<path d="M409.855 427.501L356.105 378.787C359.686 374.842 363.352 370.981 367.129 367.204L418.417 418.491C415.507 421.429 412.653 424.423 409.855 427.501Z" fill="white"/>
</mask>
<g mask="url(#mask9_3210_3)">
<path d="M409.855 427.501L356.105 378.787C359.686 374.842 363.352 370.981 367.129 367.204L418.417 418.491C415.507 421.429 412.653 424.423 409.855 427.501Z" fill="url(#paint8_radial_3210_3)"/>
</g>
<mask id="mask10_3210_3" style="mask-type:luminance" maskUnits="userSpaceOnUse" x="0" y="0" width="1196" height="1196">
<path d="M0 1196H1196V0.000244141H0V1196Z" fill="white"/>
</mask>
<g mask="url(#mask10_3210_3)">
<path d="M296.311 723C294.567 718.791 292.908 714.538 291.337 710.244C292.908 714.528 294.567 718.775 296.311 722.972L363.351 695.216L296.311 723Z" fill="#A7A5A6"/>
</g>
<mask id="mask11_3210_3" style="mask-type:luminance" maskUnits="userSpaceOnUse" x="271" y="458" width="98" height="265">
<path d="M296.311 722.973C294.567 718.776 292.908 714.529 291.337 710.245C278.759 675.863 271.767 638.793 271.526 600.115C271.522 599.424 271.52 598.731 271.52 598.041C271.52 548.04 282.768 500.698 302.858 458.336L368.443 489.394C352.802 522.326 344.073 559.148 344.073 598.041C344.073 632.457 350.928 665.277 363.351 695.216L296.311 722.973Z" fill="white"/>
</mask>
<g mask="url(#mask11_3210_3)">
<path d="M296.311 722.973C294.567 718.776 292.908 714.529 291.337 710.245C278.759 675.863 271.767 638.793 271.526 600.115C271.522 599.424 271.52 598.731 271.52 598.041C271.52 548.04 282.768 500.698 302.858 458.336L368.443 489.394C352.802 522.326 344.073 559.148 344.073 598.041C344.073 632.457 350.928 665.277 363.351 695.216L296.311 722.973Z" fill="url(#paint9_radial_3210_3)"/>
</g>
<mask id="mask12_3210_3" style="mask-type:luminance" maskUnits="userSpaceOnUse" x="0" y="0" width="1196" height="1196">
<path d="M0 1196H1196V0.000244141H0V1196Z" fill="white"/>
</mask>
<g mask="url(#mask12_3210_3)">
<path d="M394.074 446.724C396.536 443.394 399.082 440.12 401.74 436.931C399.11 440.12 396.536 443.394 394.074 446.724Z" fill="white"/>
</g>
<mask id="mask13_3210_3" style="mask-type:luminance" maskUnits="userSpaceOnUse" x="335" y="390" width="67" height="57">
<path d="M394.074 446.724L335.819 403.494C339.009 399.213 342.282 394.988 345.668 390.875L401.74 436.931C399.082 440.12 396.536 443.394 394.074 446.724Z" fill="white"/>
</mask>
<g mask="url(#mask13_3210_3)">
<path d="M394.074 446.724L335.819 403.494C339.009 399.213 342.282 394.988 345.668 390.875L401.74 436.931C399.082 440.12 396.536 443.394 394.074 446.724Z" fill="url(#paint10_radial_3210_3)"/>
</g>
<mask id="mask14_3210_3" style="mask-type:luminance" maskUnits="userSpaceOnUse" x="120" y="220" width="75" height="67">
<path d="M178.514 286.732L120.259 243.503C126.051 235.724 132.039 228.058 138.195 220.559L194.267 266.587C188.867 273.19 183.606 279.905 178.514 286.732Z" fill="white"/>
</mask>
<g mask="url(#mask14_3210_3)">
<path d="M178.514 286.732L120.259 243.503C126.051 235.724 132.039 228.058 138.195 220.559L194.267 266.587C188.867 273.19 183.606 279.905 178.514 286.732Z" fill="url(#paint11_radial_3210_3)"/>
</g>
<mask id="mask15_3210_3" style="mask-type:luminance" maskUnits="userSpaceOnUse" x="0" y="0" width="1196" height="1196">
<path d="M0 1196H1196V0.000244141H0V1196Z" fill="white"/>
</mask>
<g mask="url(#mask15_3210_3)">
<path d="M329.411 149.965L329.551 149.853L329.48 149.922C329.458 149.937 329.436 149.95 329.411 149.965Z" fill="#A7A5A6"/>
</g>
<mask id="mask16_3210_3" style="mask-type:luminance" maskUnits="userSpaceOnUse" x="292" y="3" width="336" height="147">
<path d="M329.48 149.922L329.551 149.853L292.282 87.6534C381.622 34.0153 486.184 3.18108 597.966 3.18108C607.815 3.18108 617.608 3.46091 627.345 3.9086L623.763 76.3774C615.201 75.9577 606.611 75.7339 597.966 75.7339C587.992 75.7339 578.081 76.0136 568.244 76.5639C481.263 81.4449 399.977 107.616 329.48 149.922Z" fill="white"/>
</mask>
<g mask="url(#mask16_3210_3)">
<path d="M329.48 149.922L329.551 149.853L292.282 87.6534C381.622 34.0153 486.184 3.18108 597.966 3.18108C607.815 3.18108 617.608 3.46091 627.345 3.9086L623.763 76.3774C615.201 75.9577 606.611 75.7339 597.966 75.7339C587.992 75.7339 578.081 76.0136 568.244 76.5639C481.263 81.4449 399.977 107.616 329.48 149.922Z" fill="url(#paint12_radial_3210_3)"/>
</g>
<mask id="mask17_3210_3" style="mask-type:luminance" maskUnits="userSpaceOnUse" x="699" y="14" width="72" height="85">
<path d="M749.73 98.1172C748.714 97.8094 747.694 97.5047 746.674 97.2031C731.363 92.6796 715.74 88.8432 699.897 85.6939L714.083 14.5402C733.334 18.3455 752.276 23.0742 770.799 28.6982L749.73 98.1172Z" fill="white"/>
</mask>
<g mask="url(#mask17_3210_3)">
<path d="M749.73 98.1172C748.714 97.8094 747.694 97.5047 746.674 97.2031C731.363 92.6796 715.74 88.8432 699.897 85.6939L714.083 14.5402C733.334 18.3455 752.276 23.0742 770.799 28.6982L749.73 98.1172Z" fill="url(#paint13_radial_3210_3)"/>
</g>
<mask id="mask18_3210_3" style="mask-type:luminance" maskUnits="userSpaceOnUse" x="157" y="177" width="72" height="71">
<path d="M210.999 247.225L157.249 198.511C163.768 191.32 170.484 184.269 177.339 177.414L228.627 228.702C222.61 234.745 216.735 240.929 210.999 247.225Z" fill="white"/>
</mask>
<g mask="url(#mask18_3210_3)">
<path d="M210.999 247.225L157.249 198.511C163.768 191.32 170.484 184.269 177.339 177.414L228.627 228.702C222.61 234.745 216.735 240.929 210.999 247.225Z" fill="url(#paint14_radial_3210_3)"/>
</g>
<mask id="mask19_3210_3" style="mask-type:luminance" maskUnits="userSpaceOnUse" x="0" y="0" width="1196" height="1196">
<path d="M0 1196H1196V0.000244141H0V1196Z" fill="white"/>
</mask>
<g mask="url(#mask19_3210_3)">
<path d="M1110.31 496.137C1106.98 479.265 1102.84 462.728 1097.94 446.5C1102.84 462.725 1106.98 479.262 1110.34 496.13L1110.31 496.137Z" fill="#A7A5A6"/>
</g>
<mask id="mask20_3210_3" style="mask-type:luminance" maskUnits="userSpaceOnUse" x="1097" y="425" width="85" height="72">
<path d="M1110.34 496.131C1106.98 479.262 1102.84 462.726 1097.94 446.5L1167.36 425.431C1172.96 443.926 1177.69 462.785 1181.49 481.979L1110.34 496.131Z" fill="white"/>
</mask>
<g mask="url(#mask20_3210_3)">
<path d="M1110.34 496.131C1106.98 479.262 1102.84 462.726 1097.94 446.5L1167.36 425.431C1172.96 443.926 1177.69 462.785 1181.49 481.979L1110.34 496.131Z" fill="url(#paint15_radial_3210_3)"/>
</g>
<mask id="mask21_3210_3" style="mask-type:luminance" maskUnits="userSpaceOnUse" x="1117" y="539" width="76" height="34">
<path d="M1119.66 572.466C1119.24 563.904 1118.62 555.398 1117.81 546.948L1190 539.869C1190.95 549.467 1191.65 559.176 1192.13 568.913L1119.66 572.466Z" fill="white"/>
</mask>
<g mask="url(#mask21_3210_3)">
<path d="M1119.66 572.466C1119.24 563.904 1118.62 555.398 1117.81 546.948L1190 539.869C1190.95 549.467 1191.65 559.176 1192.13 568.913L1119.66 572.466Z" fill="url(#paint16_radial_3210_3)"/>
</g>
<mask id="mask22_3210_3" style="mask-type:luminance" maskUnits="userSpaceOnUse" x="0" y="0" width="1196" height="1196">
<path d="M0 1196H1196V0.000244141H0V1196Z" fill="white"/>
</mask>
<g mask="url(#mask22_3210_3)">
<path d="M1069.48 235.358C1030 184.104 982.342 139.463 928.468 103.378C982.348 139.451 1030 184.092 1069.48 235.358Z" fill="white"/>
</g>
<mask id="mask23_3210_3" style="mask-type:luminance" maskUnits="userSpaceOnUse" x="888" y="103" width="248" height="272">
<path d="M1070.24 374.73C1029.64 288.999 966.382 216.083 888.177 163.704L928.468 103.378C982.343 139.463 1030 184.104 1069.48 235.358C1095.26 268.828 1117.56 305.125 1135.83 343.7L1070.24 374.73Z" fill="white"/>
</mask>
<g mask="url(#mask23_3210_3)">
<path d="M1070.24 374.73C1029.64 288.999 966.382 216.083 888.177 163.704L928.468 103.378C982.343 139.463 1030 184.104 1069.48 235.358C1095.26 268.828 1117.56 305.125 1135.83 343.7L1070.24 374.73Z" fill="url(#paint17_radial_3210_3)"/>
</g>
<mask id="mask24_3210_3" style="mask-type:luminance" maskUnits="userSpaceOnUse" x="198" y="138" width="69" height="73">
<path d="M247.318 210.906L198.632 157.156C205.822 150.636 213.182 144.285 220.68 138.129L266.679 194.202C260.105 199.63 253.642 205.198 247.318 210.906Z" fill="white"/>
</mask>
<g mask="url(#mask24_3210_3)">
<path d="M247.318 210.906L198.632 157.156C205.822 150.636 213.182 144.285 220.68 138.129L266.679 194.202C260.105 199.63 253.642 205.198 247.318 210.906Z" fill="url(#paint18_radial_3210_3)"/>
</g>
<mask id="mask25_3210_3" style="mask-type:luminance" maskUnits="userSpaceOnUse" x="0" y="0" width="1196" height="1196">
<path d="M0 1196H1196V0.000244141H0V1196Z" fill="white"/>
</mask>
<g mask="url(#mask25_3210_3)">
<path d="M1057.74 975.522L1001.66 929.495C1001.67 929.489 1001.67 929.483 1001.68 929.479L1057.74 975.522Z" fill="#D3D2D2"/>
</g>
<mask id="mask26_3210_3" style="mask-type:luminance" maskUnits="userSpaceOnUse" x="1001" y="598" width="192" height="378">
<path d="M1057.74 975.522L1001.68 929.479C1075.79 839.299 1120.27 723.862 1120.27 598.041H1192.83C1192.83 741.356 1142.13 872.807 1057.74 975.522Z" fill="white"/>
</mask>
<g mask="url(#mask26_3210_3)">
<path d="M1057.74 975.522L1001.68 929.479C1075.79 839.299 1120.27 723.862 1120.27 598.041H1192.83C1192.83 741.356 1142.13 872.807 1057.74 975.522Z" fill="url(#paint19_radial_3210_3)"/>
</g>
<mask id="mask27_3210_3" style="mask-type:luminance" maskUnits="userSpaceOnUse" x="0" y="0" width="1196" height="1196">
<path d="M0 1196H1196V0.000244141H0V1196Z" fill="white"/>
</mask>
<g mask="url(#mask27_3210_3)">
<path d="M597.966 1192.9C558.234 1192.9 519.425 1188.98 481.876 1181.57L496.062 1110.42L481.904 1181.57C519.425 1188.98 558.234 1192.9 597.966 1192.9Z" fill="#D3D2D2"/>
</g>
<mask id="mask28_3210_3" style="mask-type:luminance" maskUnits="userSpaceOnUse" x="481" y="1110" width="234" height="83">
<path d="M597.965 1192.9C558.233 1192.9 519.425 1188.98 481.903 1181.57L496.061 1110.42C528.994 1116.93 563.074 1120.35 597.965 1120.35C632.829 1120.35 666.909 1116.93 699.869 1110.42L714.027 1181.57C676.506 1188.98 637.697 1192.9 597.965 1192.9Z" fill="white"/>
</mask>
<g mask="url(#mask28_3210_3)">
<path d="M597.965 1192.9C558.233 1192.9 519.425 1188.98 481.903 1181.57L496.061 1110.42C528.994 1116.93 563.074 1120.35 597.965 1120.35C632.829 1120.35 666.909 1116.93 699.869 1110.42L714.027 1181.57C676.506 1188.98 637.697 1192.9 597.965 1192.9Z" fill="url(#paint20_radial_3210_3)"/>
</g>
<mask id="mask29_3210_3" style="mask-type:luminance" maskUnits="userSpaceOnUse" x="0" y="0" width="1196" height="1196">
<path d="M0 1196H1196V0.000244141H0V1196Z" fill="white"/>
</mask>
<g mask="url(#mask29_3210_3)">
<path d="M742.484 1175.22L724.856 1104.82L742.484 1175.19C848.697 1148.69 943.606 1093.65 1018.59 1018.67C943.606 1093.65 848.697 1148.69 742.484 1175.22Z" fill="white"/>
</g>
<mask id="mask30_3210_3" style="mask-type:luminance" maskUnits="userSpaceOnUse" x="724" y="967" width="295" height="209">
<path d="M742.484 1175.19L724.856 1104.82C818.115 1081.54 901.468 1033.22 967.305 967.38L1018.59 1018.67C943.606 1093.66 848.697 1148.69 742.484 1175.19Z" fill="white"/>
</mask>
<g mask="url(#mask30_3210_3)">
<path d="M742.484 1175.19L724.856 1104.82C818.115 1081.54 901.468 1033.22 967.305 967.38L1018.59 1018.67C943.606 1093.66 848.697 1148.69 742.484 1175.19Z" fill="url(#paint21_radial_3210_3)"/>
</g>
<mask id="mask31_3210_3" style="mask-type:luminance" maskUnits="userSpaceOnUse" x="243" y="103" width="65" height="76">
<path d="M286.854 178.449L243.652 120.194C251.431 114.402 259.378 108.806 267.464 103.378L307.755 163.703C300.677 168.46 293.682 173.384 286.854 178.449Z" fill="white"/>
</mask>
<g mask="url(#mask31_3210_3)">
<path d="M286.854 178.449L243.652 120.194C251.431 114.402 259.378 108.806 267.464 103.378L307.755 163.703C300.677 168.46 293.682 173.384 286.854 178.449Z" fill="url(#paint22_radial_3210_3)"/>
</g>
<mask id="mask32_3210_3" style="mask-type:luminance" maskUnits="userSpaceOnUse" x="0" y="0" width="1196" height="1196">
<path d="M0 1196H1196V0.000244141H0V1196Z" fill="white"/>
</mask>
<g mask="url(#mask32_3210_3)">
<path d="M440.057 1096.04C425.775 1091.53 411.769 1086.41 398.043 1080.71L398.047 1080.7C411.757 1086.4 425.766 1091.53 440.057 1096.04Z" fill="white"/>
</g>
<mask id="mask33_3210_3" style="mask-type:luminance" maskUnits="userSpaceOnUse" x="370" y="1080" width="77" height="88">
<path d="M425.131 1167.38C406.441 1161.7 388.142 1155.16 370.262 1147.74L398.043 1080.71C411.769 1086.41 425.775 1091.53 440.057 1096.04C442.1 1096.69 444.149 1097.32 446.201 1097.94L425.131 1167.38Z" fill="white"/>
</mask>
<g mask="url(#mask33_3210_3)">
<path d="M425.131 1167.38C406.441 1161.7 388.142 1155.16 370.262 1147.74L398.043 1080.71C411.769 1086.41 425.775 1091.53 440.057 1096.04C442.1 1096.69 444.149 1097.32 446.201 1097.94L425.131 1167.38Z" fill="url(#paint23_radial_3210_3)"/>
</g>
<mask id="mask34_3210_3" style="mask-type:luminance" maskUnits="userSpaceOnUse" x="0" y="0" width="1196" height="1196">
<path d="M0 1196H1196V0.000244141H0V1196Z" fill="white"/>
</mask>
<g mask="url(#mask34_3210_3)">
<path d="M75.6582 598.041C75.6582 490.653 108.059 390.819 163.628 307.83C108.059 390.847 75.6582 490.653 75.6582 598.041Z" fill="white"/>
</g>
<mask id="mask35_3210_3" style="mask-type:luminance" maskUnits="userSpaceOnUse" x="3" y="267" width="161" height="419">
<path d="M9.45762 685.143C5.2885 656.715 3.10498 627.616 3.10498 598.041C3.10498 475.739 40.0391 362.055 103.303 267.51L163.628 307.829C108.059 390.819 75.658 490.652 75.658 598.041C75.658 624.006 77.5609 649.552 81.2263 674.511L9.45762 685.143Z" fill="white"/>
</mask>
<g mask="url(#mask35_3210_3)">
<path d="M9.45762 685.143C5.2885 656.715 3.10498 627.616 3.10498 598.041C3.10498 475.739 40.0391 362.055 103.303 267.51L163.628 307.829C108.059 390.819 75.658 490.652 75.658 598.041C75.658 624.006 77.5609 649.552 81.2263 674.511L9.45762 685.143Z" fill="url(#paint24_radial_3210_3)"/>
</g>
<mask id="mask36_3210_3" style="mask-type:luminance" maskUnits="userSpaceOnUse" x="20" y="724" width="267" height="352">
<path d="M243.428 1075.75C134.753 994.941 54.5893 877.928 20.7896 742.531L91.1872 724.932C120.847 843.792 191.244 946.535 286.658 1017.49L243.428 1075.75Z" fill="white"/>
</mask>
<g mask="url(#mask36_3210_3)">
<path d="M243.428 1075.75C134.753 994.941 54.5893 877.928 20.7896 742.531L91.1872 724.932C120.847 843.792 191.244 946.535 286.658 1017.49L243.428 1075.75Z" fill="url(#paint25_radial_3210_3)"/>
</g>
<mask id="mask37_3210_3" style="mask-type:luminance" maskUnits="userSpaceOnUse" x="292" y="1046" width="60" height="77">
<path d="M317.38 1122.7C308.818 1118.08 300.367 1113.3 292.059 1108.29L329.356 1046.06C336.658 1050.45 344.073 1054.68 351.6 1058.71L317.38 1122.7Z" fill="white"/>
</mask>
<g mask="url(#mask37_3210_3)">
<path d="M317.38 1122.7C308.818 1118.08 300.367 1113.3 292.059 1108.29L329.356 1046.06C336.658 1050.45 344.073 1054.68 351.6 1058.71L317.38 1122.7Z" fill="url(#paint26_radial_3210_3)"/>
</g>
<mask id="mask38_3210_3" style="mask-type:luminance" maskUnits="userSpaceOnUse" x="434" y="939" width="111" height="140">
<path d="M526.588 1078.85C494.662 1074.15 463.716 1066.37 434.141 1055.77L475.692 939.624C497.796 947.541 520.852 953.361 544.691 956.859L526.588 1078.85Z" fill="white"/>
</mask>
<g mask="url(#mask38_3210_3)">
<path d="M526.588 1078.85C494.662 1074.15 463.716 1066.37 434.141 1055.77L475.692 939.624C497.796 947.541 520.852 953.361 544.691 956.859L526.588 1078.85Z" fill="url(#paint27_radial_3210_3)"/>
</g>
<mask id="mask39_3210_3" style="mask-type:luminance" maskUnits="userSpaceOnUse" x="111" y="117" width="434" height="645">
<path d="M140.18 761.669C121.882 710.521 111.921 655.456 111.921 598.041C111.921 353.773 292.114 151.616 526.784 117.172L544.859 239.194C369.703 264.88 235.257 415.749 235.257 598.041C235.257 640.878 242.701 682.009 256.326 720.146L140.18 761.669Z" fill="white"/>
</mask>
<g mask="url(#mask39_3210_3)">
<path d="M140.18 761.669C121.882 710.521 111.921 655.456 111.921 598.041C111.921 353.773 292.114 151.616 526.784 117.172L544.859 239.194C369.703 264.88 235.257 415.749 235.257 598.041C235.257 640.878 242.701 682.009 256.326 720.146L140.18 761.669Z" fill="url(#paint28_radial_3210_3)"/>
</g>
<mask id="mask40_3210_3" style="mask-type:luminance" maskUnits="userSpaceOnUse" x="237" y="841" width="223" height="207">
<path d="M411.925 1047.18C344.996 1019.45 285.622 977.172 237.72 924.318L329.131 841.524C364.89 880.976 409.183 912.51 459.128 933.215L411.925 1047.18Z" fill="white"/>
</mask>
<g mask="url(#mask40_3210_3)">
<path d="M411.925 1047.18C344.996 1019.45 285.622 977.172 237.72 924.318L329.131 841.524C364.89 880.976 409.183 912.51 459.128 933.215L411.925 1047.18Z" fill="url(#paint29_radial_3210_3)"/>
</g>
<mask id="mask41_3210_3" style="mask-type:luminance" maskUnits="userSpaceOnUse" x="736" y="148" width="253" height="234">
<path d="M889.352 381.977C888.746 381.159 888.133 380.345 887.518 379.533C848.815 328.361 796.902 287.764 736.804 262.837L784.006 148.874C865.793 182.814 936.331 238.41 988.402 308.529L889.352 381.977Z" fill="white"/>
</mask>
<g mask="url(#mask41_3210_3)">
<path d="M889.352 381.977C888.746 381.159 888.133 380.345 887.518 379.533C848.815 328.361 796.902 287.764 736.804 262.837L784.006 148.874C865.793 182.814 936.331 238.41 988.402 308.529L889.352 381.977Z" fill="url(#paint30_radial_3210_3)"/>
</g>
<mask id="mask42_3210_3" style="mask-type:luminance" maskUnits="userSpaceOnUse" x="550" y="111" width="212" height="146">
<path d="M720.211 256.458C682.018 242.776 640.859 235.333 597.966 235.333C585.99 235.333 574.155 235.893 562.487 237.04L550.427 114.29C566.068 112.78 581.933 111.996 597.966 111.996C655.465 111.996 710.614 121.985 761.79 140.312L720.211 256.458Z" fill="white"/>
</mask>
<g mask="url(#mask42_3210_3)">
<path d="M720.211 256.458C682.018 242.776 640.859 235.333 597.966 235.333C585.99 235.333 574.155 235.893 562.487 237.04L550.427 114.29C566.068 112.78 581.933 111.996 597.966 111.996C655.465 111.996 710.614 121.985 761.79 140.312L720.211 256.458Z" fill="url(#paint31_radial_3210_3)"/>
</g>
<mask id="mask43_3210_3" style="mask-type:luminance" maskUnits="userSpaceOnUse" x="148" y="736" width="122" height="70">
<path d="M158.481 805.85C155.095 798.687 151.877 791.412 148.827 784.081L262.791 736.879C265.057 742.363 267.463 747.763 269.981 753.107L158.481 805.85Z" fill="white"/>
</mask>
<g mask="url(#mask43_3210_3)">
<path d="M158.481 805.85C155.095 798.687 151.877 791.412 148.827 784.081L262.791 736.879C265.057 742.363 267.463 747.763 269.981 753.107L158.481 805.85Z" fill="url(#paint32_radial_3210_3)"/>
</g>
<mask id="mask44_3210_3" style="mask-type:luminance" maskUnits="userSpaceOnUse" x="925" y="736" width="123" height="71">
<path d="M1037.37 806.018L925.866 753.247C928.44 747.875 930.847 742.418 933.141 736.878L1047.1 784.081C1044.05 791.496 1040.78 798.799 1037.37 806.018Z" fill="white"/>
</mask>
<g mask="url(#mask44_3210_3)">
<path d="M1037.37 806.018L925.866 753.247C928.44 747.875 930.847 742.418 933.141 736.878L1047.1 784.081C1044.05 791.496 1040.78 798.799 1037.37 806.018Z" fill="url(#paint33_radial_3210_3)"/>
</g>
<mask id="mask45_3210_3" style="mask-type:luminance" maskUnits="userSpaceOnUse" x="909" y="769" width="118" height="79">
<path d="M1014.87 847.988L909.106 784.557C912.156 779.492 915.066 774.344 917.864 769.112L1026.65 827.282C1022.87 834.277 1018.96 841.189 1014.87 847.988Z" fill="white"/>
</mask>
<g mask="url(#mask45_3210_3)">
<path d="M1014.87 847.988L909.106 784.557C912.156 779.492 915.066 774.344 917.864 769.112L1026.65 827.282C1022.87 834.277 1018.96 841.189 1014.87 847.988Z" fill="url(#paint34_radial_3210_3)"/>
</g>
<mask id="mask46_3210_3" style="mask-type:luminance" maskUnits="userSpaceOnUse" x="573" y="854" width="369" height="231">
<path d="M597.966 1084.08C589.908 1084.08 581.905 1083.89 573.959 1083.5L580.059 960.328C585.99 960.609 591.95 960.748 597.966 960.748C698.135 960.748 788.791 920.149 854.433 854.507L941.647 941.722C855.739 1027.6 737.864 1081.51 607.383 1083.99C604.249 1084.05 601.112 1084.08 597.966 1084.08Z" fill="white"/>
</mask>
<g mask="url(#mask46_3210_3)">
<path d="M597.966 1084.08C589.908 1084.08 581.905 1083.89 573.959 1083.5L580.059 960.328C585.99 960.609 591.95 960.748 597.966 960.748C698.135 960.748 788.791 920.149 854.433 854.507L941.647 941.722C855.739 1027.6 737.864 1081.51 607.383 1083.99C604.249 1084.05 601.112 1084.08 597.966 1084.08Z" fill="url(#paint35_radial_3210_3)"/>
</g>
<mask id="mask47_3210_3" style="mask-type:luminance" maskUnits="userSpaceOnUse" x="917" y="368" width="168" height="394">
<path d="M1055.69 761.865L939.549 720.286C953.231 682.093 960.674 640.934 960.674 598.04C960.674 536.232 945.201 478.033 917.948 427.081L1026.73 368.966C1063.28 437.21 1084.01 515.219 1084.01 598.04C1084.01 655.54 1074.02 710.661 1055.69 761.865Z" fill="white"/>
</mask>
<g mask="url(#mask47_3210_3)">
<path d="M1055.69 761.865L939.549 720.286C953.231 682.093 960.674 640.934 960.674 598.04C960.674 536.232 945.201 478.033 917.948 427.081L1026.73 368.966C1063.28 437.21 1084.01 515.219 1084.01 598.04C1084.01 655.54 1074.02 710.661 1055.69 761.865Z" fill="url(#paint36_radial_3210_3)"/>
</g>
<mask id="mask48_3210_3" style="mask-type:luminance" maskUnits="userSpaceOnUse" x="866" y="828" width="108" height="97">
<path d="M958.072 924.486L866.688 841.636C870.662 837.271 874.551 832.767 878.3 828.206L973.629 906.466C968.592 912.594 963.388 918.611 958.072 924.486Z" fill="white"/>
</mask>
<g mask="url(#mask48_3210_3)">
<path d="M958.072 924.486L866.688 841.636C870.662 837.271 874.551 832.767 878.3 828.206L973.629 906.466C968.592 912.594 963.388 918.611 958.072 924.486Z" fill="url(#paint37_radial_3210_3)"/>
</g>
<mask id="mask49_3210_3" style="mask-type:luminance" maskUnits="userSpaceOnUse" x="0" y="0" width="1196" height="1196">
<path d="M0 1196H1196V0.000244141H0V1196Z" fill="white"/>
</mask>
<g mask="url(#mask49_3210_3)">
<path d="M889.24 814.216C892.794 809.431 896.263 804.535 899.565 799.582C896.263 804.535 892.822 809.431 889.24 814.216Z" fill="white"/>
</g>
<mask id="mask50_3210_3" style="mask-type:luminance" maskUnits="userSpaceOnUse" x="889" y="799" width="114" height="89">
<path d="M988.29 887.72L889.24 814.216C892.822 809.432 896.263 804.535 899.565 799.583L1002.14 868.078C997.664 874.738 993.047 881.285 988.29 887.72Z" fill="white"/>
</mask>
<g mask="url(#mask50_3210_3)">
<path d="M988.29 887.72L889.24 814.216C892.822 809.432 896.263 804.535 899.565 799.583L1002.14 868.078C997.664 874.738 993.047 881.285 988.29 887.72Z" fill="url(#paint38_radial_3210_3)"/>
</g>
<path d="M1417.73 946.484C1427.81 946.854 1442.36 948.351 1461.39 948.351C1497.2 948.351 1524.43 941.262 1541.22 924.474C1552.41 912.535 1559.87 896.863 1559.87 876.345C1559.87 835.31 1527.79 817.026 1506.52 812.177V811.057C1531.52 802.48 1549.8 780.842 1549.8 755.097C1549.8 737.563 1544.58 724.132 1534.13 714.059C1520.33 699.886 1499.81 693.17 1468.47 693.17C1449.82 693.17 1431.91 695.406 1417.73 698.763V946.484ZM1435.64 710.702C1441.24 709.212 1450.94 708.09 1467.35 708.09C1504.66 708.09 1531.52 720.774 1531.52 756.216C1531.52 783.826 1508.77 805.467 1472.2 805.467H1435.64V710.702ZM1435.64 820.014H1467.35C1507.27 820.014 1541.22 837.175 1541.22 876.724C1541.22 919.621 1505.03 933.424 1466.61 933.424C1453.17 933.424 1443.1 933.054 1435.64 931.559V820.014ZM1675.97 946.484H1693.88V695.033H1675.97V946.484ZM1918.91 950.589C1976.74 950.589 2031.21 906.937 2031.21 818.152C2031.21 740.55 1984.95 690.929 1921.52 690.929C1858.47 690.929 1808.48 740.92 1808.48 823.372C1808.48 901.717 1856.61 950.589 1918.54 950.589H1918.91ZM1919.29 935.666C1859.97 935.666 1827.14 879.332 1827.14 822.626C1827.14 764.051 1856.61 705.855 1920.4 705.855C1983.45 705.855 2012.56 766.289 2012.56 819.268C2012.56 881.568 1979.35 935.666 1919.66 935.666H1919.29ZM2146.37 946.484H2164.27V695.033H2146.37V946.484ZM2512.39 946.484H2529.92L2513.13 695.033H2491.87L2435.53 840.157C2422.85 874.112 2413.89 898.359 2407.55 921.487H2406.43C2399.35 897.24 2390.76 871.871 2378.83 840.157L2324.73 695.033H2304.21L2285.93 946.484H2303.47L2311.3 830.83C2314.29 789.046 2316.15 745.397 2316.9 715.925H2317.64C2325.1 743.535 2335.92 773.75 2350.1 812.923L2399.72 946.484H2412.03L2465.01 809.941C2479.56 772.258 2489.63 743.162 2498.96 715.925H2499.7C2499.7 743.535 2502.69 789.795 2504.93 827.479L2512.39 946.484ZM2783.01 858.44L2814.72 946.484H2833L2742.35 695.033H2725.18L2634.16 946.484H2652.44L2683.4 858.44H2783.01ZM2689 843.514L2719.96 758.831C2725.18 742.786 2729.29 729.728 2733.02 715.182H2733.76C2737.5 729.355 2740.85 742.039 2746.82 759.574L2777.41 843.514H2689ZM3111.84 821.879H3035.72V836.429H3093.93V925.22C3084.6 930.443 3067.81 934.17 3041.32 934.17C2974.91 934.17 2933.5 891.641 2933.5 820.763C2933.5 752.488 2976.03 707.344 3045.05 707.344C3069.3 707.344 3085.72 711.824 3098.77 718.166L3104.74 703.613C3095.04 698.763 3073.03 692.421 3046.17 692.421C2960.74 692.421 2914.85 751.739 2914.85 821.503C2914.85 862.168 2928.66 896.117 2949.55 916.263C2974.91 940.886 3005.13 949.096 3038.34 949.096C3072.66 949.096 3099.15 940.886 3111.84 935.666V821.879ZM3233.33 946.484H3251.24V695.033H3233.33V946.484ZM3396.89 946.484V819.268C3396.89 777.484 3396.52 750.247 3394.66 719.282L3395.4 718.909C3408.46 745.024 3425.62 771.515 3444.27 800.238L3540.15 946.484H3556.57V695.033H3539.41V820.384C3539.41 859.556 3539.78 888.283 3542.39 922.232L3541.64 922.609C3529.33 898.359 3514.78 874.852 3494.26 843.514L3396.52 695.033H3379.73V946.484H3396.89ZM3867.55 821.879H3791.45V836.429H3849.64V925.22C3840.32 930.443 3823.53 934.17 3797.04 934.17C3730.64 934.17 3689.22 891.641 3689.22 820.763C3689.22 752.488 3731.75 707.344 3800.77 707.344C3825.02 707.344 3841.44 711.824 3854.49 718.166L3860.46 703.613C3850.76 698.763 3828.75 692.421 3801.89 692.421C3716.46 692.421 3670.57 751.739 3670.57 821.503C3670.57 862.168 3684.38 896.117 3705.27 916.263C3730.64 940.886 3760.85 949.096 3794.06 949.096C3828.38 949.096 3854.87 940.886 3867.55 935.666V821.879Z" fill="white"/>
<path d="M1477.78 498.798H1495.69V262.271H1577.76V247.349H1395.7V262.271H1477.78V498.798ZM1677.59 247.349V400.307C1677.59 477.533 1717.51 502.901 1761.53 502.901C1808.92 502.901 1850.7 474.921 1850.7 397.696V247.349H1832.79V399.188C1832.79 461.118 1804.06 487.982 1762.28 487.982C1725.35 487.982 1695.5 463.359 1695.5 399.188V247.349H1677.59ZM1978.73 498.798H1996.64V383.519H2035.81C2069.02 385.011 2084.69 401.429 2092.52 437.614C2099.23 469.328 2104.45 491.339 2108.56 498.798H2126.84C2121.62 488.728 2116.77 470.074 2108.19 430.899C2102.22 402.919 2089.54 383.892 2069.39 377.55V376.807C2098.49 366.734 2118.63 345.096 2118.63 311.147C2118.63 293.609 2111.92 276.821 2101.1 266.375C2086.92 252.571 2066.03 245.483 2033.2 245.483C2015.67 245.483 1994.4 247.348 1978.73 250.706V498.798ZM1996.64 263.39C2002.98 261.898 2015.67 260.033 2032.83 260.033C2072.37 260.033 2100.73 275.702 2100.73 314.131C2100.73 347.331 2075.36 368.969 2036.56 368.969H1996.64V263.39ZM2238.09 498.798H2255.99V394.714L2281.73 366.358L2377.24 498.798H2398.51L2294.05 354.046L2389.55 247.349H2367.91L2278.75 348.454C2272.03 356.285 2264.57 364.866 2257.11 374.565H2255.99V247.349H2238.09V498.798ZM2493.6 247.349V400.307C2493.6 477.533 2533.52 502.901 2577.54 502.901C2624.92 502.901 2666.7 474.921 2666.7 397.696V247.349H2648.8V399.188C2648.8 461.118 2620.07 487.982 2578.28 487.982C2541.35 487.982 2511.51 463.359 2511.51 399.188V247.349H2493.6Z" fill="white"/>
<defs>
<radialGradient id="paint0_radial_3210_3" cx="0" cy="0" r="1" gradientUnits="userSpaceOnUse" gradientTransform="translate(597.962 598.038) scale(594.857 594.857)">
<stop stop-color="#BFEAFB"/>
<stop offset="0.5" stop-color="#BFEAFB"/>
<stop offset="1" stop-color="#00ADEF"/>
</radialGradient>
<radialGradient id="paint1_radial_3210_3" cx="0" cy="0" r="1" gradientUnits="userSpaceOnUse" gradientTransform="translate(597.962 598.038) scale(594.857 594.857)">
<stop stop-color="#8E9DA5"/>
<stop offset="0.5" stop-color="#8E9DA5"/>
<stop offset="1" stop-color="#4384A1"/>
</radialGradient>
<radialGradient id="paint2_radial_3210_3" cx="0" cy="0" r="1" gradientUnits="userSpaceOnUse" gradientTransform="translate(597.963 598.037) scale(594.856 594.857)">
<stop stop-color="#D9F3FD"/>
<stop offset="0.5" stop-color="#D9F3FD"/>
<stop offset="1" stop-color="#66CEF5"/>
</radialGradient>
<radialGradient id="paint3_radial_3210_3" cx="0" cy="0" r="1" gradientUnits="userSpaceOnUse" gradientTransform="translate(597.962 598.038) scale(594.857 594.857)">
<stop stop-color="#B4C8D1"/>
<stop offset="0.5" stop-color="#B4C8D1"/>
<stop offset="1" stop-color="#54A9CB"/>
</radialGradient>
<radialGradient id="paint4_radial_3210_3" cx="0" cy="0" r="1" gradientUnits="userSpaceOnUse" gradientTransform="translate(597.962 598.038) scale(594.857 594.857)">
<stop stop-color="#8E9DA5"/>
<stop offset="0.5" stop-color="#8E9DA5"/>
<stop offset="1" stop-color="#4384A1"/>
</radialGradient>
<radialGradient id="paint5_radial_3210_3" cx="0" cy="0" r="1" gradientUnits="userSpaceOnUse" gradientTransform="translate(597.963 598.038) scale(594.857 594.857)">
<stop stop-color="#D9F3FD"/>
<stop offset="0.5" stop-color="#D9F3FD"/>
<stop offset="1" stop-color="#66CEF5"/>
</radialGradient>
<radialGradient id="paint6_radial_3210_3" cx="0" cy="0" r="1" gradientUnits="userSpaceOnUse" gradientTransform="translate(597.962 598.038) scale(594.857 594.857)">
<stop stop-color="#B4C8D1"/>
<stop offset="0.5" stop-color="#B4C8D1"/>
<stop offset="1" stop-color="#54A9CB"/>
</radialGradient>
<radialGradient id="paint7_radial_3210_3" cx="0" cy="0" r="1" gradientUnits="userSpaceOnUse" gradientTransform="translate(597.962 598.037) scale(594.857 594.857)">
<stop stop-color="#D9F3FD"/>
<stop offset="0.5" stop-color="#D9F3FD"/>
<stop offset="1" stop-color="#66CEF5"/>
</radialGradient>
<radialGradient id="paint8_radial_3210_3" cx="0" cy="0" r="1" gradientUnits="userSpaceOnUse" gradientTransform="translate(597.963 598.038) scale(594.857 594.857)">
<stop stop-color="#D9F3FD"/>
<stop offset="0.5" stop-color="#D9F3FD"/>
<stop offset="1" stop-color="#66CEF5"/>
</radialGradient>
<radialGradient id="paint9_radial_3210_3" cx="0" cy="0" r="1" gradientUnits="userSpaceOnUse" gradientTransform="translate(597.962 598.038) scale(594.857 594.857)">
<stop stop-color="#8E9DA5"/>
<stop offset="0.5" stop-color="#8E9DA5"/>
<stop offset="1" stop-color="#4384A1"/>
</radialGradient>
<radialGradient id="paint10_radial_3210_3" cx="0" cy="0" r="1" gradientUnits="userSpaceOnUse" gradientTransform="translate(597.962 598.038) scale(594.856 594.856)">
<stop stop-color="#D9F3FD"/>
<stop offset="0.5" stop-color="#D9F3FD"/>
<stop offset="1" stop-color="#66CEF5"/>
</radialGradient>
<radialGradient id="paint11_radial_3210_3" cx="0" cy="0" r="1" gradientUnits="userSpaceOnUse" gradientTransform="translate(597.963 598.038) scale(594.857 594.857)">
<stop stop-color="#8E9DA5"/>
<stop offset="0.5" stop-color="#8E9DA5"/>
<stop offset="1" stop-color="#4384A1"/>
</radialGradient>
<radialGradient id="paint12_radial_3210_3" cx="0" cy="0" r="1" gradientUnits="userSpaceOnUse" gradientTransform="translate(597.962 598.038) scale(594.857 594.857)">
<stop stop-color="#8E9DA5"/>
<stop offset="0.5" stop-color="#8E9DA5"/>
<stop offset="1" stop-color="#4384A1"/>
</radialGradient>
<radialGradient id="paint13_radial_3210_3" cx="0" cy="0" r="1" gradientUnits="userSpaceOnUse" gradientTransform="translate(597.962 598.037) scale(594.857 594.857)">
<stop stop-color="#B4C8D1"/>
<stop offset="0.5" stop-color="#B4C8D1"/>
<stop offset="1" stop-color="#54A9CB"/>
</radialGradient>
<radialGradient id="paint14_radial_3210_3" cx="0" cy="0" r="1" gradientUnits="userSpaceOnUse" gradientTransform="translate(597.962 598.038) scale(594.857 594.857)">
<stop stop-color="#D9F3FD"/>
<stop offset="0.5" stop-color="#D9F3FD"/>
<stop offset="1" stop-color="#66CEF5"/>
</radialGradient>
<radialGradient id="paint15_radial_3210_3" cx="0" cy="0" r="1" gradientUnits="userSpaceOnUse" gradientTransform="translate(597.962 598.038) scale(594.857 594.857)">
<stop stop-color="#8E9DA5"/>
<stop offset="0.5" stop-color="#8E9DA5"/>
<stop offset="1" stop-color="#4384A1"/>
</radialGradient>
<radialGradient id="paint16_radial_3210_3" cx="0" cy="0" r="1" gradientUnits="userSpaceOnUse" gradientTransform="translate(597.963 598.037) scale(594.857 594.857)">
<stop stop-color="#D9F3FD"/>
<stop offset="0.5" stop-color="#D9F3FD"/>
<stop offset="1" stop-color="#66CEF5"/>
</radialGradient>
<radialGradient id="paint17_radial_3210_3" cx="0" cy="0" r="1" gradientUnits="userSpaceOnUse" gradientTransform="translate(597.963 598.038) scale(594.857 594.857)">
<stop stop-color="#D9F3FD"/>
<stop offset="0.5" stop-color="#D9F3FD"/>
<stop offset="1" stop-color="#66CEF5"/>
</radialGradient>
<radialGradient id="paint18_radial_3210_3" cx="0" cy="0" r="1" gradientUnits="userSpaceOnUse" gradientTransform="translate(597.963 598.037) scale(594.857 594.856)">
<stop stop-color="#B4C8D1"/>
<stop offset="0.5" stop-color="#B4C8D1"/>
<stop offset="1" stop-color="#54A9CB"/>
</radialGradient>
<radialGradient id="paint19_radial_3210_3" cx="0" cy="0" r="1" gradientUnits="userSpaceOnUse" gradientTransform="translate(597.962 598.038) scale(594.857 594.857)">
<stop stop-color="#B4C8D1"/>
<stop offset="0.5" stop-color="#B4C8D1"/>
<stop offset="1" stop-color="#54A9CB"/>
</radialGradient>
<radialGradient id="paint20_radial_3210_3" cx="0" cy="0" r="1" gradientUnits="userSpaceOnUse" gradientTransform="translate(597.962 598.038) scale(594.857 594.857)">
<stop stop-color="#B4C8D1"/>
<stop offset="0.5" stop-color="#B4C8D1"/>
<stop offset="1" stop-color="#54A9CB"/>
</radialGradient>
<radialGradient id="paint21_radial_3210_3" cx="0" cy="0" r="1" gradientUnits="userSpaceOnUse" gradientTransform="translate(597.963 598.038) scale(594.857 594.857)">
<stop stop-color="#D9F3FD"/>
<stop offset="0.5" stop-color="#D9F3FD"/>
<stop offset="1" stop-color="#66CEF5"/>
</radialGradient>
<radialGradient id="paint22_radial_3210_3" cx="0" cy="0" r="1" gradientUnits="userSpaceOnUse" gradientTransform="translate(597.963 598.037) scale(594.857 594.857)">
<stop stop-color="#D9F3FD"/>
<stop offset="0.5" stop-color="#D9F3FD"/>
<stop offset="1" stop-color="#66CEF5"/>
</radialGradient>
<radialGradient id="paint23_radial_3210_3" cx="0" cy="0" r="1" gradientUnits="userSpaceOnUse" gradientTransform="translate(597.962 598.038) scale(594.857 594.857)">
<stop stop-color="#D9F3FD"/>
<stop offset="0.5" stop-color="#D9F3FD"/>
<stop offset="1" stop-color="#66CEF5"/>
</radialGradient>
<radialGradient id="paint24_radial_3210_3" cx="0" cy="0" r="1" gradientUnits="userSpaceOnUse" gradientTransform="translate(597.962 598.037) scale(594.857 594.857)">
<stop stop-color="#D9F3FD"/>
<stop offset="0.5" stop-color="#D9F3FD"/>
<stop offset="1" stop-color="#66CEF5"/>
</radialGradient>
<radialGradient id="paint25_radial_3210_3" cx="0" cy="0" r="1" gradientUnits="userSpaceOnUse" gradientTransform="translate(597.962 598.038) scale(594.857 594.857)">
<stop stop-color="#8E9DA5"/>
<stop offset="0.5" stop-color="#8E9DA5"/>
<stop offset="1" stop-color="#4384A1"/>
</radialGradient>
<radialGradient id="paint26_radial_3210_3" cx="0" cy="0" r="1" gradientUnits="userSpaceOnUse" gradientTransform="translate(597.963 598.038) scale(594.857 594.857)">
<stop stop-color="#D9F3FD"/>
<stop offset="0.5" stop-color="#D9F3FD"/>
<stop offset="1" stop-color="#66CEF5"/>
</radialGradient>
<radialGradient id="paint27_radial_3210_3" cx="0" cy="0" r="1" gradientUnits="userSpaceOnUse" gradientTransform="translate(597.962 598.037) scale(594.857 594.857)">
<stop stop-color="#D9F3FD"/>
<stop offset="0.5" stop-color="#D9F3FD"/>
<stop offset="1" stop-color="#66CEF5"/>
</radialGradient>
<radialGradient id="paint28_radial_3210_3" cx="0" cy="0" r="1" gradientUnits="userSpaceOnUse" gradientTransform="translate(597.962 598.037) scale(594.857 594.857)">
<stop stop-color="#B4C8D1"/>
<stop offset="0.5" stop-color="#B4C8D1"/>
<stop offset="1" stop-color="#54A9CB"/>
</radialGradient>
<radialGradient id="paint29_radial_3210_3" cx="0" cy="0" r="1" gradientUnits="userSpaceOnUse" gradientTransform="translate(597.962 598.037) scale(594.857 594.857)">
<stop stop-color="#8E9DA5"/>
<stop offset="0.5" stop-color="#8E9DA5"/>
<stop offset="1" stop-color="#4384A1"/>
</radialGradient>
<radialGradient id="paint30_radial_3210_3" cx="0" cy="0" r="1" gradientUnits="userSpaceOnUse" gradientTransform="translate(597.963 598.037) scale(594.857 594.857)">
<stop stop-color="#8E9DA5"/>
<stop offset="0.5" stop-color="#8E9DA5"/>
<stop offset="1" stop-color="#4384A1"/>
</radialGradient>
<radialGradient id="paint31_radial_3210_3" cx="0" cy="0" r="1" gradientUnits="userSpaceOnUse" gradientTransform="translate(597.963 598.038) scale(594.857 594.857)">
<stop stop-color="#D9F3FD"/>
<stop offset="0.5" stop-color="#D9F3FD"/>
<stop offset="1" stop-color="#66CEF5"/>
</radialGradient>
<radialGradient id="paint32_radial_3210_3" cx="0" cy="0" r="1" gradientUnits="userSpaceOnUse" gradientTransform="translate(597.962 598.038) scale(594.857 594.857)">
<stop stop-color="#D9F3FD"/>
<stop offset="0.5" stop-color="#D9F3FD"/>
<stop offset="1" stop-color="#66CEF5"/>
</radialGradient>
<radialGradient id="paint33_radial_3210_3" cx="0" cy="0" r="1" gradientUnits="userSpaceOnUse" gradientTransform="translate(597.963 598.037) scale(594.857 594.857)">
<stop stop-color="#8E9DA5"/>
<stop offset="0.5" stop-color="#8E9DA5"/>
<stop offset="1" stop-color="#4384A1"/>
</radialGradient>
<radialGradient id="paint34_radial_3210_3" cx="0" cy="0" r="1" gradientUnits="userSpaceOnUse" gradientTransform="translate(597.963 598.037) scale(594.857 594.857)">
<stop stop-color="#B4C8D1"/>
<stop offset="0.5" stop-color="#B4C8D1"/>
<stop offset="1" stop-color="#54A9CB"/>
</radialGradient>
<radialGradient id="paint35_radial_3210_3" cx="0" cy="0" r="1" gradientUnits="userSpaceOnUse" gradientTransform="translate(597.963 598.037) scale(594.857 594.857)">
<stop stop-color="#B4C8D1"/>
<stop offset="0.5" stop-color="#B4C8D1"/>
<stop offset="1" stop-color="#54A9CB"/>
</radialGradient>
<radialGradient id="paint36_radial_3210_3" cx="0" cy="0" r="1" gradientUnits="userSpaceOnUse" gradientTransform="translate(597.963 598.037) scale(594.857 594.857)">
<stop stop-color="#8E9DA5"/>
<stop offset="0.5" stop-color="#8E9DA5"/>
<stop offset="1" stop-color="#4384A1"/>
</radialGradient>
<radialGradient id="paint37_radial_3210_3" cx="0" cy="0" r="1" gradientUnits="userSpaceOnUse" gradientTransform="translate(597.963 598.037) scale(594.857 594.857)">
<stop stop-color="#D9F3FD"/>
<stop offset="0.5" stop-color="#D9F3FD"/>
<stop offset="1" stop-color="#66CEF5"/>
</radialGradient>
<radialGradient id="paint38_radial_3210_3" cx="0" cy="0" r="1" gradientUnits="userSpaceOnUse" gradientTransform="translate(597.963 598.038) scale(594.857 594.857)">
<stop stop-color="#D9F3FD"/>
<stop offset="0.5" stop-color="#D9F3FD"/>
<stop offset="1" stop-color="#66CEF5"/>
</radialGradient>
</defs>
</svg>
